<?xml version="1.0" encoding="utf-8"?><svg xmlns="http://www.w3.org/2000/svg" xmlns:xlink="http://www.w3.org/1999/xlink"><symbol viewBox="0 0 24 24" id="account-state" xmlns="http://www.w3.org/2000/svg"><g fill-rule="evenodd"><path d="M20 2H4c-1.1 0-2 .9-2 2v16c0 1.1.9 2 2 2h16c1.1 0 2-.9 2-2V4c0-1.1-.9-2-2-2zm0 2v1H4V4h16zm0 3v10H4V7h16zM4 20v-1h16v1H4z"/><path d="M6 8h9v2H6zm10 0h2v2h-2zM6 11h9v2H6zm10 0h2v2h-2zM6 14h9v2H6zm10 0h2v2h-2z"/></g></symbol><symbol viewBox="0 0 24 24" id="account-statement" xmlns="http://www.w3.org/2000/svg"><g fill-rule="evenodd"><path d="M0 0h24v24H0z"/><path d="M17 5V2H2v18h6v2h1l3.5-2 2.5 2 2.5-2 3.5 2h1V5h-5zM8 5v3H6v2h2v1H6v2h2v1H6v2h2v2H4V4h11v1H8zm12 14.1l-2.7-1.5-2.3 1.8-2.3-1.8-2.7 1.5V7h10v12.1z"/><path d="M17 8h2v2h-2zm-6 0h5v2h-5zm6 6h2v2h-2zm-6 0h5v2h-5zm6-3h2v2h-2zm-6 0h5v2h-5z"/></g></symbol><symbol viewBox="0 0 492 492" id="arrow-back" xmlns="http://www.w3.org/2000/svg"><path d="M464.344 207.418l.768.168H135.888l103.496-103.724c5.068-5.064 7.848-11.924 7.848-19.124 0-7.2-2.78-14.012-7.848-19.088L223.28 49.538c-5.064-5.064-11.812-7.864-19.008-7.864-7.2 0-13.952 2.78-19.016 7.844L7.844 226.914C2.76 231.998-.02 238.77 0 245.974c-.02 7.244 2.76 14.02 7.844 19.096l177.412 177.412c5.064 5.06 11.812 7.844 19.016 7.844 7.196 0 13.944-2.788 19.008-7.844l16.104-16.112c5.068-5.056 7.848-11.808 7.848-19.008 0-7.196-2.78-13.592-7.848-18.652L134.72 284.406h329.992c14.828 0 27.288-12.78 27.288-27.6v-22.788c0-14.82-12.828-26.6-27.656-26.6z"/></symbol><symbol viewBox="0 0 12 8" id="arrow-down" xmlns="http://www.w3.org/2000/svg"><path d="M12 1.41L10.59 0 6 4.58 1.41 0 0 1.41l6 6z" fill-rule="evenodd"/></symbol><symbol viewBox="0 0 8 12" id="arrow-left" xmlns="http://www.w3.org/2000/svg"><path d="M6 0l1.41 1.41L2.83 6l4.58 4.59L6 12 0 6z"/></symbol><symbol viewBox="0 0 8 12" id="arrow-right" xmlns="http://www.w3.org/2000/svg"><path d="M2 12L.59 10.59 5.17 6 .59 1.41 2 0l6 6z"/></symbol><symbol viewBox="0 0 12 8" id="arrow-up" xmlns="http://www.w3.org/2000/svg"><path d="M12 6l-1.41 1.41L6 2.83 1.41 7.41 0 6l6-6z" fill-rule="evenodd"/></symbol><symbol viewBox="0 0 24 24" id="attach-file" xmlns="http://www.w3.org/2000/svg"><g fill-rule="evenodd"><path d="M0 0h24v24H0z"/><path d="M0 0h24v24H0z"/><path d="M0 0h24v24H0z"/><path d="M16.5 6v11.5c0 2.21-1.79 4-4 4s-4-1.79-4-4V5a2.5 2.5 0 0 1 5 0v10.5c0 .55-.45 1-1 1s-1-.45-1-1V6H10v9.5a2.5 2.5 0 0 0 5 0V5c0-2.21-1.79-4-4-4S7 2.79 7 5v12.5c0 3.04 2.46 5.5 5.5 5.5s5.5-2.46 5.5-5.5V6h-1.5z"/><path d="M0 0h24v24H0z"/></g></symbol><symbol viewBox="0 0 24 24" id="banners" xmlns="http://www.w3.org/2000/svg"><g fill-rule="evenodd"><path d="M20 5h-2V4c0-1.1-.9-2-2-2H4c-1.1 0-2 .9-2 2v12c0 1.1.9 2 2 2h1v2c0 1.1.9 2 2 2h13c1.1 0 2-.9 2-2V7c0-1.1-.9-2-2-2zm0 4H7V7h13v2zM5 7v9H4V4h12v1H7c-1.1 0-2 .9-2 2zm2 13v-9h13v9H7z"/><path d="M9 13h9v2H9zm0 3h9v2H9z"/></g></symbol><symbol viewBox="0 0 24 24" id="block" xmlns="http://www.w3.org/2000/svg"><g fill-rule="evenodd"><path d="M0 0h24v24H0z"/><path d="M0 0h24v24H0z"/><path d="M4 4h16v16H4z"/><path d="M16 9.333h-.667V8a3.335 3.335 0 0 0-6.666 0v1.333H8c-.733 0-1.333.6-1.333 1.334v6.666c0 .734.6 1.334 1.333 1.334h8c.733 0 1.333-.6 1.333-1.334v-6.666c0-.734-.6-1.334-1.333-1.334zm-4 6c-.733 0-1.333-.6-1.333-1.333s.6-1.333 1.333-1.333 1.333.6 1.333 1.333-.6 1.333-1.333 1.333zm2.067-6H9.933V8c0-1.14.927-2.067 2.067-2.067 1.14 0 2.067.927 2.067 2.067v1.333z" fill-rule="nonzero"/></g></symbol><symbol viewBox="0 0 24 24" id="card-active" xmlns="http://www.w3.org/2000/svg"><g fill-rule="evenodd"><path d="M0 0h24v24H0z"/><path d="M20 2H4c-1.1 0-2 .9-2 2v11c0 1.1.9 2 2 2h2.1c.5 2.8 2.9 5 5.9 5 3 0 5.4-2.2 5.9-5H20c1.1 0 2-.9 2-2V4c0-1.1-.9-2-2-2zm0 2v2H4V4h16zm-8 16.2c-2.3 0-4.2-1.9-4.2-4.2 0-2.3 1.9-4.2 4.2-4.2 2.3 0 4.2 1.9 4.2 4.2 0 2.3-1.9 4.2-4.2 4.2zm5.9-5.2c-.5-2.8-2.9-5-5.9-5-3 0-5.4 2.2-5.9 5H4V9h16v6h-2.1z" fill-rule="nonzero"/><path d="M12 16.6l-1.3-1.3-1.4 1.4 2.7 2.7 3.3-3.2-1.5-1.5z"/></g></symbol><symbol viewBox="0 0 24 24" id="card-arested" xmlns="http://www.w3.org/2000/svg"><g fill-rule="evenodd"><path d="M20 2H4c-1.1 0-2 .9-2 2v11c0 1.1.9 2 2 2h2.1c.5 2.8 2.9 5 5.9 5 3 0 5.4-2.2 5.9-5H20c1.1 0 2-.9 2-2V4c0-1.1-.9-2-2-2zm0 2v2H4V4h16zm-3.8 12c0 .8-.2 1.5-.6 2.2L13.4 16l2.2-2.2c.4.7.6 1.4.6 2.2zM12 14.6l-2.2-2.2c.6-.4 1.4-.6 2.2-.6.8 0 1.5.2 2.2.6L12 14.6zM7.8 16c0-.8.2-1.5.6-2.2l2.2 2.2-2.2 2.2c-.4-.7-.6-1.4-.6-2.2zm2 3.6l2.2-2.2 2.2 2.2c-.6.4-1.4.6-2.2.6-.8 0-1.5-.2-2.2-.6zm8.1-4.6c-.5-2.8-2.9-5-5.9-5-3 0-5.4 2.2-5.9 5H4V9h16v6h-2.1z" fill-rule="nonzero"/><path d="M0 0h24v24H0z"/></g></symbol><symbol viewBox="0 0 24 24" id="card-blocked" xmlns="http://www.w3.org/2000/svg"><g fill-rule="evenodd"><path d="M20 2H4c-1.1 0-2 .9-2 2v11c0 1.1.9 2 2 2h2v3c0 1.1.9 2 2 2h8c1.1 0 2-.9 2-2v-3h2c1.1 0 2-.9 2-2V4c0-1.1-.9-2-2-2zm0 2v2H4V4h16zm-4 16H8v-5h8v5zm-3-7h-2v-1h2v1zm5 2c0-1.1-.9-2-2-2h-1v-1c0-1.1-.9-2-2-2h-2c-1.1 0-2 .9-2 2v1H8c-1.1 0-2 .9-2 2H4V9h16v6h-2z" fill-rule="nonzero"/><path d="M11 16h2v3h-2z"/></g></symbol><symbol viewBox="0 0 18 19" id="checkbox-checked" xmlns="http://www.w3.org/2000/svg"><defs><rect id="ana" x="0" y="1" width="16" height="16" rx="2"/><filter x="-12.5%" y="-12.5%" width="125%" height="125%" filterUnits="objectBoundingBox" id="anb"><feGaussianBlur stdDeviation="1.5" in="SourceAlpha" result="shadowBlurInner1"/><feOffset dy="1" in="shadowBlurInner1" result="shadowOffsetInner1"/><feComposite in="shadowOffsetInner1" in2="SourceAlpha" operator="arithmetic" k2="-1" k3="1" result="shadowInnerInner1"/><feColorMatrix values="0 0 0 0 0 0 0 0 0 0 0 0 0 0 0 0 0 0 0.5 0" in="shadowInnerInner1"/></filter></defs><g fill-rule="evenodd"><use xlink:href="#ana"/><use filter="url(#anb)" xlink:href="#ana"/><rect x=".5" y="1.5" width="15" height="15" rx="2"/><path d="M6.333 13L3 9.667l1.333-1.334 2 2L11.667 5 13 6.333z"/></g></symbol><symbol viewBox="0 0 18 19" id="checkbox-unchecked" xmlns="http://www.w3.org/2000/svg"><defs><rect id="aoa" x="0" y="1" width="16" height="16" rx="2"/><filter x="-12.5%" y="-12.5%" width="125%" height="125%" filterUnits="objectBoundingBox" id="aob"><feGaussianBlur stdDeviation="1.5" in="SourceAlpha" result="shadowBlurInner1"/><feOffset dy="1" in="shadowBlurInner1" result="shadowOffsetInner1"/><feComposite in="shadowOffsetInner1" in2="SourceAlpha" operator="arithmetic" k2="-1" k3="1" result="shadowInnerInner1"/><feColorMatrix values="0 0 0 0 0 0 0 0 0 0 0 0 0 0 0 0 0 0 0.5 0" in="shadowInnerInner1"/></filter></defs><g fill-rule="evenodd"><use xlink:href="#aoa"/><use filter="url(#aob)" xlink:href="#aoa"/><rect x=".5" y="1.5" width="15" height="15" rx="2"/></g></symbol><symbol viewBox="0 0 24 24" id="clients" xmlns="http://www.w3.org/2000/svg"><g fill-rule="evenodd"><path d="M13 6h5v2h-5zm0 3h5v2h-5zm1 3h4v2h-4zm1 3h3v2h-3z"/><path d="M20 2H9c-1.1 0-2 .9-2 2v1.1c-1.7.5-3 2-3 3.9s1.3 3.4 3 3.9V14H5c-1.7 0-3 1.3-3 3v5h18c1.1 0 2-.9 2-2V4c0-1.1-.9-2-2-2zM5.8 9c0-1.2 1-2.2 2.2-2.2 1.2 0 2.2 1 2.2 2.2 0 1.2-1 2.2-2.2 2.2-1.2 0-2.2-1-2.2-2.2zM4 17c0-.6.4-1 1-1h6c.6 0 1 .4 1 1v3H4v-3zm16 3h-6v-3c0-1.7-1.3-3-3-3H9v-1.1c1.7-.4 3-2 3-3.9s-1.3-3.4-3-3.9V4h11v16z"/></g></symbol><symbol viewBox="0 0 24 24" id="cost" xmlns="http://www.w3.org/2000/svg"><g fill-rule="evenodd"><path d="M12 2L3 7v15h18V7l-9-5zm7 18H5V8.2l7-3.9 7 3.9V20z"/><path d="M11 7v1.1c-.7.1-1.2.4-1.7.8-.7.6-1 1.3-1 2.1s.3 1.4.9 1.8c.6.4 1.5.8 2.6 1 .8.2 1.3.4 1.6.6.3.2.4.5.4.8 0 .4-.2.7-.5.9-.3.2-.7.3-1.3.3-.6 0-1-.1-1.4-.4-.3-.2-.6-.6-.7-1H8c0 .7.4 1.5 1 2 .5.5 1.2.7 2 .9V19h2v-1.1c.8-.1 1.4-.4 1.9-.7.7-.5 1.1-1.2 1.1-2.1 0-.8-.3-1.4-.9-1.9-.6-.5-1.5-.8-2.7-1.1-.8-.2-1.3-.3-1.6-.5-.3-.2-.4-.5-.4-.8 0-.3.1-.6.4-.8.3-.2.7-.4 1.2-.4s1 .1 1.3.4c.3.3.5.5.5.9h2.1c0-.9-.3-1.5-1-2.1-.5-.4-1.1-.7-1.9-.8V7h-2z"/></g></symbol><symbol viewBox="0 0 20 20" id="danger" xmlns="http://www.w3.org/2000/svg"><g fill-rule="evenodd"><path d="M-2-2h24v24H-2z"/><path d="M10 0C4.47 0 0 4.47 0 10s4.47 10 10 10 10-4.47 10-10S15.53 0 10 0zm5 13.59L13.59 15 10 11.41 6.41 15 5 13.59 8.59 10 5 6.41 6.41 5 10 8.59 13.59 5 15 6.41 11.41 10 15 13.59z" fill-rule="nonzero"/></g></symbol><symbol viewBox="0 0 24 24" id="date" xmlns="http://www.w3.org/2000/svg"><g fill-rule="evenodd"><path d="M17 12h-5v5h5v-5zM16 1v2H8V1H6v2H5c-1.11 0-1.99.9-1.99 2L3 19a2 2 0 0 0 2 2h14c1.1 0 2-.9 2-2V5c0-1.1-.9-2-2-2h-1V1h-2zm3 18H5V8h14v11z" fill-rule="nonzero"/><path d="M0 0h24v24H0z"/></g></symbol><symbol viewBox="0 0 24 24" id="download" xmlns="http://www.w3.org/2000/svg"><g fill-rule="evenodd"><path d="M21 11c-.6 0-1 .4-1 1v4H4v-4c0-.5-.4-1-1-1-.5 0-1 .4-1 1v8c0 1.1.9 2 2 2h16c1.1 0 2-.9 2-2v-8c0-.6-.4-1-1-1zM4 20v-2h16v2H4z" fill-rule="nonzero"/><path d="M11 2h2v2h-2zm0 3h2v2h-2zm5.7 5.3l-1.4-1.4-2.3 2.3V8h-2v3.2L8.7 8.9l-1.4 1.4L12 15z"/></g></symbol><symbol viewBox="0 0 24 24" id="ic_error" xmlns="http://www.w3.org/2000/svg"><g fill-rule="evenodd"><path d="M0 0h24v24H0z"/><path d="M0 0h24v24H0z"/><path d="M4 4h16v16H4z"/><path d="M11.333 14h1.334v1.333h-1.334V14zm0-5.333h1.334v4h-1.334v-4zm.66-3.334A6.663 6.663 0 0 0 5.333 12c0 3.68 2.98 6.667 6.66 6.667A6.67 6.67 0 0 0 18.667 12a6.67 6.67 0 0 0-6.674-6.667zm.007 12A5.332 5.332 0 0 1 6.667 12 5.332 5.332 0 0 1 12 6.667 5.332 5.332 0 0 1 17.333 12 5.332 5.332 0 0 1 12 17.333z" fill-rule="nonzero"/></g></symbol><symbol viewBox="0 0 24 24" id="icn_accaunt_active" xmlns="http://www.w3.org/2000/svg"><g fill-rule="evenodd"><path d="M0 0h24v24H0z"/><circle cx="12" cy="12" r="4"/></g></symbol><symbol viewBox="0 0 24 24" id="icn_accaunt_blocked" xmlns="http://www.w3.org/2000/svg"><g fill-rule="evenodd"><path d="M0 0h24v24H0z"/><circle cx="12" cy="12" r="4"/></g></symbol><symbol viewBox="0 0 24 24" id="icn_accaunt_closed" xmlns="http://www.w3.org/2000/svg"><g fill-rule="evenodd"><path d="M0 0h24v24H0z"/><circle cx="12" cy="12" r="4"/></g></symbol><symbol viewBox="0 0 24 24" id="icn_accaunt_notifi" xmlns="http://www.w3.org/2000/svg"><g fill-rule="evenodd"><path d="M0 0h24v24H0z"/><circle cx="12" cy="12" r="4"/></g></symbol><symbol viewBox="0 0 24 24" id="icv_card_block_copy" xmlns="http://www.w3.org/2000/svg"><g fill-rule="evenodd"><path d="M0 0h24v24H0z"/><path d="M0 0h24v24H0z"/><path d="M4 4h16v16H4z"/><path d="M12 15.333c.733 0 1.333-.6 1.333-1.333s-.6-1.333-1.333-1.333-1.333.6-1.333 1.333.6 1.333 1.333 1.333zm4-6h-.667V8a3.335 3.335 0 0 0-6.666 0h1.266c0-1.14.927-2.067 2.067-2.067 1.14 0 2.067.927 2.067 2.067v1.333H8c-.733 0-1.333.6-1.333 1.334v6.666c0 .734.6 1.334 1.333 1.334h8c.733 0 1.333-.6 1.333-1.334v-6.666c0-.734-.6-1.334-1.333-1.334zm0 8H8v-6.666h8v6.666z" fill-rule="nonzero"/></g></symbol><symbol viewBox="0 0 24 24" id="icv_card_collapse" xmlns="http://www.w3.org/2000/svg"><g fill-rule="evenodd"><path d="M0 0h24v24H0z"/><path d="M0 0h24v24H0z"/><rect x="7.5" y="7.5" width="10" height="10" rx="1"/><path d="M9.5 12.5h6"/></g></symbol><symbol viewBox="0 0 24 24" id="icv_card_showall" xmlns="http://www.w3.org/2000/svg"><g fill-rule="evenodd"><path d="M0 0h24v24H0z"/><path d="M0 0h24v24H0z"/><rect x="7.5" y="7.5" width="10" height="10" rx="1"/><path d="M12.5 9.5v6m-3-3h6"/></g></symbol><symbol viewBox="0 0 24 24" id="icv_file_copy" xmlns="http://www.w3.org/2000/svg"><g fill-rule="evenodd"><path d="M0 0h24v24H0z"/><path d="M0 0h24v24H0z"/><path d="M0 0h24v24H0z"/><path d="M16.5 6v11.5c0 2.21-1.79 4-4 4s-4-1.79-4-4V5a2.5 2.5 0 0 1 5 0v10.5c0 .55-.45 1-1 1s-1-.45-1-1V6H10v9.5a2.5 2.5 0 0 0 5 0V5c0-2.21-1.79-4-4-4S7 2.79 7 5v12.5c0 3.04 2.46 5.5 5.5 5.5s5.5-2.46 5.5-5.5V6h-1.5z"/><path d="M0 0h24v24H0z"/></g></symbol><symbol viewBox="0 0 24 24" id="icv_look" xmlns="http://www.w3.org/2000/svg"><g fill-rule="evenodd"><path d="M0 0h24v24H0z"/><path d="M21.6 19.4l-5.8-5.8c.8-1.2 1.2-2.6 1.2-4.1C17 5.4 13.6 2 9.5 2S2 5.4 2 9.5 5.4 17 9.5 17c1.5 0 2.9-.5 4.1-1.2l5.8 5.8c.6.6 1.5.6 2.1 0 .6-.6.6-1.6.1-2.2zM4 9.5C4 6.5 6.5 4 9.5 4S15 6.5 15 9.5 12.5 15 9.5 15 4 12.5 4 9.5z" fill-rule="nonzero"/></g></symbol><symbol viewBox="0 0 24 24" id="icv_msgs" xmlns="http://www.w3.org/2000/svg"><g fill-rule="evenodd"><path d="M0 0h24v24H0z"/><circle cx="12.5" cy="12.5" r="10.5"/><text font-family="Roboto-Medium, Roboto" font-size="11" font-weight="400"><tspan x="9.374" y="14">1</tspan></text></g></symbol><symbol viewBox="0 0 24 24" id="invoice" xmlns="http://www.w3.org/2000/svg"><g fill-rule="evenodd"><path d="M0 0h24v24H0z"/><path d="M4 2c-1.1 0-2 .9-2 2v18h1l3-2 3 2 3-2 3 2 3-2 3 2h1V4c0-1.1-.9-2-2-2H4zm16 16.9l-2-1.3-3 2-3-2-3 2-3-2-2 1.3V4h16v14.9z"/><path d="M6 7h9v2H6zm0 3h9v2H6zm0 3h9v2H6zm10-6h2v2h-2zm0 3h2v2h-2zm0 3h2v2h-2z"/></g></symbol><symbol viewBox="0 0 76 30" id="main-logo" xmlns="http://www.w3.org/2000/svg"><g fill-rule="evenodd"><path d="M39.713 8.788v4.803h4.615V8.788h3.213v12.269h-3.213v-5.118h-4.615v5.118h-3.23V8.787h3.23zm13.686 0v4.803h4.613V8.788h3.214v12.269h-3.214v-5.118H53.4v5.118h-3.232V8.787H53.4zm13.665 0l.02 5.345.159-.28 3.905-5.065h3.835l-5.078 5.697 5.575 6.573h-4.048l-4.24-5.714-.109-.227v5.94h-3.23V8.79h3.23l-.02-.001zm-48.731 5.325c-.12-.529-.497-1.271-.948-2.027l-2.069 3.22-2.073-3.23c-.451.758-.834 1.506-.952 2.036a3.124 3.124 0 0 0-.144.94c0 1.726 1.416 3.127 3.165 3.127s3.166-1.401 3.166-3.128c0-.327-.052-.642-.145-.938zM8.735 19.21l1.58-2.22-2.706-.464-1.184 1.657-3.806-.654L0 21.21l4.488.774 2.223-3.122 2.024.348zm7.999-11.696l.47 2.674 2.249-1.562-.352-1.999 3.158-2.193L21.48 0l-3.73 2.59.663 3.758-1.679 1.167zM13.64 22.48l-.47-2.673-2.25 1.562.354 2-3.16 2.193.782 4.43 3.728-2.585-.663-3.758 1.68-1.169h-.001zm7.997-11.695l-1.579 2.22 2.705.466 1.183-1.66 3.807.654 2.62-3.68-4.489-.774-2.223 3.122-2.023-.35v.002zM10.921 8.626l2.25 1.562.47-2.675-1.68-1.166.663-3.758L8.896 0l-.783 4.432 3.16 2.195-.353 1.999zm8.532 12.743l-2.249-1.562-.47 2.674 1.68 1.168-.663 3.758 3.728 2.587.78-4.433-3.158-2.191.352-2v-.001zM17.207 4.711l-2.02-3.144-2.02 3.144 2.02 3.144 2.02-3.144zm3.095 5.237l3.68-.814.825-3.633-3.682.813-.823 3.634zm-10.23 0l-.824-3.634-3.68-.813.823 3.633 3.681.814zm12.35 5.05l3.183 1.995 3.185-1.995-3.185-1.993-3.182 1.993zm-9.255 10.289l2.02 3.143 2.02-3.143-2.02-3.144-2.02 3.144zm7.135-5.237l.823 3.633 3.682.812-.826-3.632-3.678-.813zM1.585 14.998l3.184 1.995 3.185-1.995-3.185-1.993-3.184 1.993zm8.487 5.052l-3.681.813-.822 3.632 3.68-.81.823-3.635zm17.681-2.52l-3.806.653-1.183-1.657-2.705.465 1.579 2.22 2.023-.349 2.223 3.121 4.49-.773-2.621-3.68zM6.427 11.812l1.182 1.66 2.705-.465-1.579-2.221-2.023.349-2.223-3.122L0 8.788l2.622 3.68 3.805-.656z" fill-rule="nonzero"/><path d="M16.932 11.337l-1.615 2.514-1.614-2.514 1.614-2.512z"/></g></symbol><symbol viewBox="0 0 382 40" id="nnk_pnp_logo" xmlns="http://www.w3.org/2000/svg"><g fill-rule="evenodd"><text font-family="Roboto-Medium, Roboto" font-size="16" font-weight="400"><tspan x="137" y="27">АО «ННК-Приморнефтепродукт»</tspan></text><path d="M123 0h1v40h-1zm-4 0h1v40h-1z"/><path d="M52.95 11.717v6.404h6.155v-6.404h4.283v16.359h-4.283v-6.824H52.95v6.824h-4.307V11.717h4.307zm18.248 0v6.404h6.152v-6.404h4.285v16.359H77.35v-6.824h-6.152v6.824H66.89V11.717h4.308zm18.22 0l.026 7.126.213-.372 5.207-6.754h5.113l-6.77 7.596 7.433 8.764h-5.397l-5.654-7.618-.145-.303v7.921h-4.306V11.718h4.306l-.026-.001zm-64.974 7.1c-.159-.704-.662-1.695-1.264-2.703l-2.758 4.294-2.764-4.306c-.602 1.01-1.112 2.008-1.27 2.713a4.166 4.166 0 0 0-.192 1.253c0 2.302 1.889 4.17 4.22 4.17 2.332 0 4.221-1.868 4.221-4.17 0-.437-.068-.856-.193-1.251zM11.647 25.613l2.105-2.96-3.607-.619-1.579 2.21-5.074-.872L0 28.28l5.984 1.031 2.964-4.162 2.698.463v.002zM22.31 10.018l.628 3.566 2.998-2.082-.469-2.666 4.21-2.924L28.639 0l-4.97 3.452.883 5.011-2.239 1.556zm-4.123 19.956l-.627-3.565-3 2.083.473 2.666-4.214 2.925 1.043 5.907 4.97-3.448-.884-5.01 2.24-1.558h-.001zM28.85 14.379l-2.105 2.96 3.606.622 1.578-2.213 5.075.872 3.493-4.906-5.984-1.033-2.964 4.163-2.698-.465h-.001zm-14.29-2.877l3 2.082.627-3.566-2.24-1.556.884-5.01L11.862 0l-1.044 5.91 4.214 2.925-.471 2.666v.001zm11.376 16.99L22.94 26.41l-.627 3.564 2.24 1.558-.884 5.01 4.97 3.45 1.041-5.91-4.21-2.922.468-2.668zm-2.994-22.21L20.25 2.09l-2.694 4.192 2.694 4.192 2.694-4.192zm4.127 6.982l4.905-1.085 1.1-4.845-4.909 1.085-1.097 4.845zm-13.64 0L12.33 8.419 7.425 7.334l1.096 4.845 4.908 1.085zm16.467 6.733l4.244 2.66 4.246-2.66-4.246-2.657-4.244 2.657zM17.555 33.715l2.694 4.191 2.694-4.19-2.694-4.192-2.694 4.191zm9.515-6.982l1.097 4.845 4.91 1.082-1.102-4.842-4.905-1.085zM2.113 19.997l4.245 2.66 4.247-2.66-4.247-2.657-4.245 2.657zm11.316 6.736l-4.908 1.084-1.096 4.843 4.906-1.081 1.098-4.846zm23.575-3.36l-5.075.871-1.577-2.209-3.607.62 2.105 2.958 2.698-.463 2.964 4.161 5.987-1.032-3.495-4.904v-.002zM8.57 15.75l1.576 2.213 3.607-.62-2.106-2.961-2.698.466-2.964-4.163-5.984 1.033 3.496 4.906 5.074-.874H8.57z" fill-rule="nonzero"/><path d="M22.576 15.116l-2.154 3.352-2.152-3.352 2.152-3.35z"/></g></symbol><symbol viewBox="0 0 24 24" id="oil-ge" xmlns="http://www.w3.org/2000/svg"><g fill-rule="evenodd"><path d="M0 0h24v24H0z"/><path d="M0 0h24v24H0z"/><path d="M13 13.306L14.942 4h6.9l-.323 1.555h-4.983L16.09 7.67h4.818l-.324 1.555h-4.817l-.584 2.526h5.414l-.33 1.556zM8.564 8.494h4.164l-.838 3.993c-.49.317-1.093.586-1.806.806-.713.22-1.44.33-2.18.33-1.151 0-2.034-.26-2.647-.78C4.419 12.13 4 11.1 4 9.75c0-.906.18-1.773.54-2.603.431-.998 1.045-1.773 1.84-2.323C7.176 4.275 8.111 4 9.186 4s1.937.25 2.587.749c.65.5 1.08 1.227 1.291 2.184l-1.783.203c-.157-.525-.41-.92-.759-1.187-.349-.267-.788-.4-1.317-.4a3.15 3.15 0 0 0-1.701.482c-.516.322-.92.82-1.212 1.492a5.473 5.473 0 0 0-.438 2.203c0 .782.177 1.361.533 1.736.355.374.876.561 1.561.561.41 0 .832-.058 1.263-.174a5.704 5.704 0 0 0 1.118-.416l.285-1.384H8.24l.324-1.555zM3 15h20l-1 4H2z"/></g></symbol><symbol viewBox="0 0 24 24" id="oil-regular" xmlns="http://www.w3.org/2000/svg"><g fill-rule="evenodd"><path d="M0 0h24v24H0z"/><path d="M0 0h24v24H0z"/><path d="M3 14h20l-1 4H2zM11.548 4.625l-.533 2.514h2.215c.44 0 .781-.051 1.022-.153.428-.177.699-.529.813-1.053.118-.567.01-.948-.324-1.143-.19-.11-.497-.165-.92-.165h-2.273zm5.25-.73c.152.237.257.5.314.787a2.47 2.47 0 0 1-.029.984 3.468 3.468 0 0 1-.618 1.31c-.316.43-.75.734-1.305.912.394.173.647.42.759.74.112.319.098.806-.042 1.462l-.133.629c-.089.427-.133.717-.133.87 0 .24.08.418.241.533l-.044.234h-2.152a6.451 6.451 0 0 1-.026-.501 4.46 4.46 0 0 1 .09-.806l.17-.87c.12-.596.095-.994-.072-1.193-.168-.2-.539-.299-1.114-.299h-2.019l-.774 3.67H8L9.987 3h4.59c.65.013 1.138.093 1.46.241.32.148.575.366.76.654z"/></g></symbol><symbol viewBox="0 0 24 24" id="ok" xmlns="http://www.w3.org/2000/svg"><g fill-rule="evenodd"><path d="M0 0h24v24H0z"/><path d="M0 0h24v24H0z"/><path d="M4 4h16v16H4z"/><path d="M10 14.8L7.2 12l-.933.933L10 16.667l8-8-.933-.934z"/></g></symbol><symbol viewBox="0 0 24 24" id="password" xmlns="http://www.w3.org/2000/svg"><g fill-rule="evenodd"><path d="M0 0h24v24H0z"/><path d="M0 0h24v24H0z"/><path d="M0 0h24v24H0z"/><path d="M18 8h-1V6c0-2.76-2.24-5-5-5S7 3.24 7 6v2H6c-1.1 0-2 .9-2 2v10c0 1.1.9 2 2 2h12c1.1 0 2-.9 2-2V10c0-1.1-.9-2-2-2zm-6 9c-1.1 0-2-.9-2-2s.9-2 2-2 2 .9 2 2-.9 2-2 2zm3.1-9H8.9V6c0-1.71 1.39-3.1 3.1-3.1 1.71 0 3.1 1.39 3.1 3.1v2z" fill-rule="nonzero"/></g></symbol><symbol viewBox="0 0 24 24" id="print" xmlns="http://www.w3.org/2000/svg"><g fill-rule="evenodd"><path d="M0 0h24v24H0z"/><path d="M22 9c0-1.7-1.3-3-3-3h-1V2H6v4H5C3.3 6 2 7.3 2 9v9h4v4h12v-4h4V9zM8 4h8v2H8V4zm8 16H8v-4h8v4zm4-4h-2v-2H6v2H4V9c0-.6.4-1 1-1h14c.6 0 1 .4 1 1v7z" fill-rule="nonzero"/><path d="M16 10h2v2h-2z"/></g></symbol><symbol viewBox="0 0 24 24" id="search" xmlns="http://www.w3.org/2000/svg"><g fill-rule="evenodd"><path d="M0 0h24v24H0z"/><path d="M21.6 19.4c.5.6.5 1.6-.1 2.2-.6.6-1.5.6-2.1 0l-5.8-5.8c-1.2.7-2.6 1.2-4.1 1.2C5.4 17 2 13.6 2 9.5S5.4 2 9.5 2 17 5.4 17 9.5c0 1.5-.4 2.9-1.2 4.1l5.8 5.8zM4 9.5c0 3 2.5 5.5 5.5 5.5S15 12.5 15 9.5 12.5 4 9.5 4 4 6.5 4 9.5z" fill-rule="nonzero"/></g></symbol><symbol viewBox="0 0 24 24" id="statement" xmlns="http://www.w3.org/2000/svg"><g fill-rule="evenodd"><path d="M0 0h24v24H0z"/><path d="M6 6h8v2H6zm0 3h8v2H6z"/><path d="M20 12h-2V2H2v18h4c0 1.1.9 2 2 2h12c1.1 0 2-.9 2-2v-6c0-1.1-.9-2-2-2zm0 3H8v-1h12v1zM6 14v4H4V4h12v8H8c-1.1 0-2 .9-2 2zm2 6v-2h12v2H8z"/></g></symbol><symbol viewBox="0 0 24 24" id="statements" xmlns="http://www.w3.org/2000/svg"><g fill-rule="evenodd"><path d="M2 2v20h20V2H2zm2 18V4h1v16H4zm16 0H7V4h13v16z"/><path d="M11 6h5v2h-5zm-2 4h9v2H9zm0 3h9v2H9zm0 3h9v2H9z"/></g></symbol><symbol viewBox="0 0 18 12" id="update" xmlns="http://www.w3.org/2000/svg"><g fill-rule="evenodd"><path d="M14.25 3l-3 3h2.25c0 2.482-2.018 4.5-4.5 4.5a4.403 4.403 0 0 1-2.1-.525L5.805 11.07A5.95 5.95 0 0 0 9 12c3.315 0 6-2.685 6-6h2.25l-3-3zM4.5 6c0-2.482 2.018-4.5 4.5-4.5.758 0 1.477.188 2.1.525L12.195.93A5.948 5.948 0 0 0 9 0C5.685 0 3 2.685 3 6H.75l3 3 3-3H4.5z" fill-rule="nonzero"/><path d="M0-3h18v18H0z"/></g></symbol><symbol viewBox="0 0 24 24" id="user" xmlns="http://www.w3.org/2000/svg"><g fill-rule="evenodd"><path d="M12 12c2.21 0 4-1.79 4-4s-1.79-4-4-4-4 1.79-4 4 1.79 4 4 4zm0 2c-2.67 0-8 1.34-8 4v2h16v-2c0-2.66-5.33-4-8-4z" fill-rule="nonzero"/><path d="M0 0h24v24H0z"/></g></symbol><symbol viewBox="0 0 24 12" id="websee-logo" xmlns="http://www.w3.org/2000/svg"><g fill-rule="evenodd"><path d="M4.898 10.571c0-.003 0-.005.002-.008l1.59-5.308-1.175-3.924C5.125.697 4.64.184 4.234.184H.589C.182.184.006.697.196 1.331l2.76 9.21c.184.617.646 1.119 1.046 1.145l-.01-.003c.361-.115.741-.569.906-1.112z"/><path d="M13.987.235a.404.404 0 0 0-.155-.03H9.164c-.408 0-.892.515-1.082 1.148l-2.759 9.21c0 .003 0 .006-.002.008-.164.544-.545.997-.906 1.113.047.018.098.03.155.03l4.387-.003-.012.002.024-.002h.27c.407 0 .89-.514 1.08-1.148l2.76-9.21c.163-.547.544-1.002.908-1.118zM22.72.21h-3.647c-.407 0-.891.515-1.08 1.148l-2.76 9.21-.003.01c-.165.543-.545.996-.905 1.111a.41.41 0 0 0 .155.03h2.129l-.03-.003h2.692c.407 0 .89-.514 1.08-1.148l2.76-9.21c.19-.633.014-1.147-.393-1.147z"/><path d="M14.775 10.569l1.618-5.402-1.142-3.812C15.093.826 14.73.382 14.377.25c-.353.133-.716.574-.874 1.103l-1.686 5.625 1.075 3.588c.184.616.506 1.117.905 1.145-.025-.005.093-.012.07-.021.362-.115.741-.568.905-1.11l.003-.01z"/></g></symbol></svg>