<?xml version="1.0" encoding="UTF-8"?>
<svg width="24px" height="24px" viewBox="0 0 24 24" version="1.1" xmlns="http://www.w3.org/2000/svg" xmlns:xlink="http://www.w3.org/1999/xlink">
    <!-- Generator: Sketch 52.6 (67491) - http://www.bohemiancoding.com/sketch -->
    <title>icv_banners</title>
    <desc>Created with Sketch.</desc>
    <g id="icv_banners" stroke="none" stroke-width="1" fill="none" fill-rule="evenodd">
        <g id="Banner" transform="translate(2.000000, 2.000000)" fill="#666666">
            <path d="M18,3 L16,3 L16,2 C16,0.9 15.1,0 14,0 L2,0 C0.9,0 0,0.9 0,2 L0,14 C0,15.1 0.9,16 2,16 L3,16 L3,18 C3,19.1 3.9,20 5,20 L18,20 C19.1,20 20,19.1 20,18 L20,5 C20,3.9 19.1,3 18,3 Z M18,7 L5,7 L5,5 L18,5 L18,7 Z M3,5 L3,14 L2,14 L2,2 L14,2 L14,3 L5,3 C3.9,3 3,3.9 3,5 Z M5,18 L5,9 L18,9 L18,18 L5,18 Z" id="Shape"></path>
            <rect id="Rectangle" x="7" y="11" width="9" height="2"></rect>
            <rect id="Rectangle" x="7" y="14" width="9" height="2"></rect>
        </g>
    </g>
</svg>