<?xml version="1.0" encoding="UTF-8"?>
<svg width="24px" height="24px" viewBox="0 0 24 24" version="1.1" xmlns="http://www.w3.org/2000/svg" xmlns:xlink="http://www.w3.org/1999/xlink">
    <!-- Generator: Sketch 52.6 (67491) - http://www.bohemiancoding.com/sketch -->
    <title>icv_card_block</title>
    <desc>Created with Sketch.</desc>
    <g id="icv_card_block" stroke="none" stroke-width="1" fill="none" fill-rule="evenodd">
        <g id="icv_card_active-copy-3">
            <rect id="Rectangle" x="0" y="0" width="24" height="24"></rect>
            <g id="baseline-credit_card-24px">
                <polygon id="Path" points="0 0 24 0 24 24 0 24"></polygon>
            </g>
        </g>
        <g id="baseline-lock-24px" transform="translate(4.000000, 4.000000)">
            <polygon id="Path" points="0 0 16 0 16 16 0 16"></polygon>
            <path d="M12,5.33333333 L11.3333333,5.33333333 L11.3333333,4 C11.3333333,2.16 9.84,0.666666667 8,0.666666667 C6.16,0.666666667 4.66666667,2.16 4.66666667,4 L4.66666667,5.33333333 L4,5.33333333 C3.26666667,5.33333333 2.66666667,5.93333333 2.66666667,6.66666667 L2.66666667,13.3333333 C2.66666667,14.0666667 3.26666667,14.6666667 4,14.6666667 L12,14.6666667 C12.7333333,14.6666667 13.3333333,14.0666667 13.3333333,13.3333333 L13.3333333,6.66666667 C13.3333333,5.93333333 12.7333333,5.33333333 12,5.33333333 Z M8,11.3333333 C7.26666667,11.3333333 6.66666667,10.7333333 6.66666667,10 C6.66666667,9.26666667 7.26666667,8.66666667 8,8.66666667 C8.73333333,8.66666667 9.33333333,9.26666667 9.33333333,10 C9.33333333,10.7333333 8.73333333,11.3333333 8,11.3333333 Z M10.0666667,5.33333333 L5.93333333,5.33333333 L5.93333333,4 C5.93333333,2.86 6.86,1.93333333 8,1.93333333 C9.14,1.93333333 10.0666667,2.86 10.0666667,4 L10.0666667,5.33333333 Z" id="Shape" fill="#E84E0F" fill-rule="nonzero"></path>
        </g>
    </g>
</svg>