<?xml version="1.0" encoding="UTF-8"?>
<svg width="24px" height="24px" viewBox="0 0 24 24" version="1.1" xmlns="http://www.w3.org/2000/svg" xmlns:xlink="http://www.w3.org/1999/xlink">
    <!-- Generator: Sketch 52.6 (67491) - http://www.bohemiancoding.com/sketch -->
    <title>icv_card_blocked</title>
    <desc>Created with Sketch.</desc>
    <g id="icv_card_blocked" stroke="none" stroke-width="1" fill="none" fill-rule="evenodd">
        <g id="Karta_blok" transform="translate(2.000000, 2.000000)" fill="#787878">
            <path d="M18,0 L2,0 C0.9,0 0,0.9 0,2 L0,13 C0,14.1 0.9,15 2,15 L4,15 L4,18 C4,19.1 4.9,20 6,20 L14,20 C15.1,20 16,19.1 16,18 L16,15 L18,15 C19.1,15 20,14.1 20,13 L20,2 C20,0.9 19.1,0 18,0 Z M18,2 L18,4 L2,4 L2,2 L18,2 Z M14,18 L6,18 L6,13 L14,13 L14,18 Z M11,11 L9,11 L9,10 L11,10 L11,11 Z M16,13 C16,11.9 15.1,11 14,11 L13,11 L13,10 C13,8.9 12.1,8 11,8 L9,8 C7.9,8 7,8.9 7,10 L7,11 L6,11 C4.9,11 4,11.9 4,13 L2,13 L2,7 L18,7 L18,13 L16,13 Z" id="Shape" fill-rule="nonzero"></path>
            <rect id="Rectangle" x="9" y="14" width="2" height="3"></rect>
        </g>
    </g>
</svg>