<?xml version="1.0" encoding="UTF-8"?>
<svg width="24px" height="24px" viewBox="0 0 24 24" version="1.1" xmlns="http://www.w3.org/2000/svg" xmlns:xlink="http://www.w3.org/1999/xlink">
    <!-- Generator: Sketch 52.6 (67491) - http://www.bohemiancoding.com/sketch -->
    <title>icv_clients</title>
    <desc>Created with Sketch.</desc>
    <g id="icv_clients" stroke="none" stroke-width="1" fill="none" fill-rule="evenodd">
        <g id="Klienti" transform="translate(2.000000, 2.000000)" fill="#666666">
            <rect id="Rectangle" x="11" y="4" width="5" height="2"></rect>
            <rect id="Rectangle" x="11" y="7" width="5" height="2"></rect>
            <rect id="Rectangle" x="12" y="10" width="4" height="2"></rect>
            <rect id="Rectangle" x="13" y="13" width="3" height="2"></rect>
            <path d="M18,0 L7,0 C5.9,0 5,0.9 5,2 L5,3.1 C3.3,3.6 2,5.1 2,7 C2,8.9 3.3,10.4 5,10.9 L5,12 L3,12 C1.3,12 0,13.3 0,15 L0,20 L18,20 C19.1,20 20,19.1 20,18 L20,2 C20,0.9 19.1,0 18,0 Z M3.8,7 C3.8,5.8 4.8,4.8 6,4.8 C7.2,4.8 8.2,5.8 8.2,7 C8.2,8.2 7.2,9.2 6,9.2 C4.8,9.2 3.8,8.2 3.8,7 Z M2,15 C2,14.4 2.4,14 3,14 L9,14 C9.6,14 10,14.4 10,15 L10,18 L2,18 L2,15 Z M18,18 L12,18 L12,15 C12,13.3 10.7,12 9,12 L7,12 L7,10.9 C8.7,10.5 10,8.9 10,7 C10,5.1 8.7,3.6 7,3.1 L7,2 L18,2 L18,18 Z" id="Shape"></path>
        </g>
    </g>
</svg>