<?xml version="1.0" encoding="UTF-8"?>
<svg width="24px" height="24px" viewBox="0 0 24 24" version="1.1" xmlns="http://www.w3.org/2000/svg" xmlns:xlink="http://www.w3.org/1999/xlink">
    <!-- Generator: Sketch 52.6 (67491) - http://www.bohemiancoding.com/sketch -->
    <title>ic_error</title>
    <desc>Created with Sketch.</desc>
    <g id="ic_error" stroke="none" stroke-width="1" fill="none" fill-rule="evenodd">
        <g id="icv_card_active-copy-3">
            <rect id="Rectangle" x="0" y="0" width="24" height="24"></rect>
            <g id="baseline-credit_card-24px">
                <polygon id="Path" points="0 0 24 0 24 24 0 24"></polygon>
            </g>
        </g>
        <g id="baseline-error_outline-24px" transform="translate(4.000000, 4.000000)">
            <polygon id="Path" points="0 0 16 0 16 16 0 16"></polygon>
            <path d="M7.33333333,10 L8.66666667,10 L8.66666667,11.3333333 L7.33333333,11.3333333 L7.33333333,10 Z M7.33333333,4.66666667 L8.66666667,4.66666667 L8.66666667,8.66666667 L7.33333333,8.66666667 L7.33333333,4.66666667 Z M7.99333333,1.33333333 C4.31333333,1.33333333 1.33333333,4.32 1.33333333,8 C1.33333333,11.68 4.31333333,14.6666667 7.99333333,14.6666667 C11.68,14.6666667 14.6666667,11.68 14.6666667,8 C14.6666667,4.32 11.68,1.33333333 7.99333333,1.33333333 Z M8,13.3333333 C5.05333333,13.3333333 2.66666667,10.9466667 2.66666667,8 C2.66666667,5.05333333 5.05333333,2.66666667 8,2.66666667 C10.9466667,2.66666667 13.3333333,5.05333333 13.3333333,8 C13.3333333,10.9466667 10.9466667,13.3333333 8,13.3333333 Z" id="Shape" fill="#D0021B" fill-rule="nonzero"></path>
        </g>
    </g>
</svg>