<?xml version="1.0" encoding="UTF-8"?>
<svg width="24px" height="24px" viewBox="0 0 24 24" version="1.1" xmlns="http://www.w3.org/2000/svg" xmlns:xlink="http://www.w3.org/1999/xlink">
    <!-- Generator: Sketch 52.6 (67491) - http://www.bohemiancoding.com/sketch -->
    <title>ic_regular</title>
    <desc>Created with Sketch.</desc>
    <g id="ic_regular" stroke="none" stroke-width="1" fill="none" fill-rule="evenodd">
        <g id="icv_card_active-copy-3">
            <rect id="Rectangle" x="0" y="0" width="24" height="24"></rect>
            <g id="baseline-credit_card-24px">
                <polygon id="Path" points="0 0 24 0 24 24 0 24"></polygon>
            </g>
        </g>
        <polygon id="Rectangle-Copy" fill="#666666" points="3 14 23 14 22 18 2 18"></polygon>
        <path d="M11.5483398,4.625 L11.0151367,7.13867188 L13.2304688,7.13867188 C13.6705751,7.13867188 14.0112293,7.08789113 14.2524414,6.98632812 C14.6798524,6.80859286 14.950683,6.45735939 15.0649414,5.93261719 C15.1834316,5.36555706 15.0755225,4.98470149 14.7412109,4.79003906 C14.5507803,4.68001247 14.24398,4.625 13.8208008,4.625 L11.5483398,4.625 Z M16.7978516,3.89501953 C16.9501961,4.13199988 17.0549314,4.39436705 17.1120605,4.68212891 C17.1691897,4.96989076 17.1596683,5.29784972 17.0834961,5.66601562 C16.9861649,6.11035378 16.7798681,6.54727975 16.4645996,6.97680664 C16.1493311,7.40633353 15.714521,7.70996005 15.1601562,7.88769531 C15.5537129,8.06119878 15.8065587,8.30769697 15.9187012,8.62719727 C16.0308437,8.94669756 16.0170905,9.43440427 15.8774414,10.090332 L15.7441406,10.71875 C15.655273,11.146161 15.6108398,11.4360344 15.6108398,11.5883789 C15.6108398,11.829591 15.6912427,12.0073236 15.8520508,12.121582 L15.8076172,12.3564453 L13.6557617,12.3564453 C13.6388346,12.1490875 13.6303711,11.9819342 13.6303711,11.8549805 C13.6346029,11.5926094 13.664225,11.3238946 13.7192383,11.0488281 L13.890625,10.1791992 C14.0091152,9.58251655 13.9847827,9.18473407 13.817627,8.98583984 C13.6504712,8.78694562 13.279137,8.6875 12.7036133,8.6875 L10.6850586,8.6875 L9.91064453,12.3564453 L8,12.3564453 L9.98681641,3 L14.5761719,3 C15.2278678,3.01269538 15.7145166,3.09309822 16.0361328,3.24121094 C16.357749,3.38932366 16.6116527,3.60725768 16.7978516,3.89501953 Z" id="R" fill="#4A4A4A"></path>
    </g>
</svg>