<?xml version="1.0" encoding="UTF-8"?>
<svg width="24px" height="24px" viewBox="0 0 24 24" version="1.1" xmlns="http://www.w3.org/2000/svg" xmlns:xlink="http://www.w3.org/1999/xlink">
    <!-- Generator: Sketch 52.6 (67491) - http://www.bohemiancoding.com/sketch -->
    <title>icv_vipiska_po_schetu</title>
    <desc>Created with Sketch.</desc>
    <g id="icv_vipiska_po_schetu" stroke="none" stroke-width="1" fill="none" fill-rule="evenodd">
        <rect id="Rectangle" x="0" y="0" width="24" height="24"></rect>
        <g id="Vipiski_schet" transform="translate(2.000000, 2.000000)" fill="#666666">
            <path d="M15,3 L15,0 L0,0 L0,18 L6,18 L6,20 L7,20 L10.5,18 L13,20 L15.5,18 L19,20 L20,20 L20,3 L15,3 Z M6,3 L6,6 L4,6 L4,8 L6,8 L6,9 L4,9 L4,11 L6,11 L6,12 L4,12 L4,14 L6,14 L6,16 L2,16 L2,2 L13,2 L13,3 L6,3 Z M18,17.1 L15.3,15.6 L13,17.4 L10.7,15.6 L8,17.1 L8,5 L18,5 L18,17.1 Z" id="Shape"></path>
            <rect id="Rectangle" x="15" y="6" width="2" height="2"></rect>
            <rect id="Rectangle" x="9" y="6" width="5" height="2"></rect>
            <rect id="Rectangle" x="15" y="12" width="2" height="2"></rect>
            <rect id="Rectangle" x="9" y="12" width="5" height="2"></rect>
            <rect id="Rectangle" x="15" y="9" width="2" height="2"></rect>
            <rect id="Rectangle" x="9" y="9" width="5" height="2"></rect>
        </g>
    </g>
</svg>