<?xml version="1.0" encoding="UTF-8"?>
<svg width="24px" height="24px" viewBox="0 0 24 24" version="1.1" xmlns="http://www.w3.org/2000/svg" xmlns:xlink="http://www.w3.org/1999/xlink">
    <!-- Generator: Sketch 52.6 (67491) - http://www.bohemiancoding.com/sketch -->
    <title>icv_download</title>
    <desc>Created with Sketch.</desc>
    <g id="icv_download" stroke="none" stroke-width="1" fill="none" fill-rule="evenodd">
        <g id="Skachat" transform="translate(2.000000, 2.000000)" fill="#E94D10">
            <path d="M19,9 C18.4,9 18,9.4 18,10 L18,14 L2,14 L2,10 C2,9.5 1.6,9 1,9 C0.5,9 0,9.4 0,10 L0,18 C0,19.1 0.9,20 2,20 L18,20 C19.1,20 20,19.1 20,18 L20,10 C20,9.4 19.6,9 19,9 Z M2,18 L2,16 L18,16 L18,18 L2,18 Z" id="Shape" fill-rule="nonzero"></path>
            <rect id="Rectangle" x="9" y="0" width="2" height="2"></rect>
            <rect id="Rectangle" x="9" y="3" width="2" height="2"></rect>
            <polygon id="Path" points="14.7 8.3 13.3 6.9 11 9.2 11 6 9 6 9 9.2 6.7 6.9 5.3 8.3 10 13"></polygon>
        </g>
    </g>
</svg>