<?xml version="1.0" encoding="UTF-8"?>
<svg width="24px" height="24px" viewBox="0 0 24 24" version="1.1" xmlns="http://www.w3.org/2000/svg" xmlns:xlink="http://www.w3.org/1999/xlink">
    <!-- Generator: Sketch 52.6 (67491) - http://www.bohemiancoding.com/sketch -->
    <title>icv_schet</title>
    <desc>Created with Sketch.</desc>
    <g id="icv_schet" stroke="none" stroke-width="1" fill="none" fill-rule="evenodd">
        <rect id="Rectangle" x="0" y="0" width="24" height="24"></rect>
        <g id="Scheta" transform="translate(2.000000, 2.000000)" fill="#666666">
            <path d="M2,0 C0.9,0 0,0.9 0,2 L0,20 L1,20 L4,18 L7,20 L10,18 L13,20 L16,18 L19,20 L20,20 L20,2 C20,0.9 19.1,0 18,0 L2,0 Z M18,16.9 L16,15.6 L13,17.6 L10,15.6 L7,17.6 L4,15.6 L2,16.9 L2,2 L18,2 L18,16.9 Z" id="Shape"></path>
            <rect id="Rectangle" x="4" y="5" width="9" height="2"></rect>
            <rect id="Rectangle" x="4" y="8" width="9" height="2"></rect>
            <rect id="Rectangle" x="4" y="11" width="9" height="2"></rect>
            <rect id="Rectangle" x="14" y="5" width="2" height="2"></rect>
            <rect id="Rectangle" x="14" y="8" width="2" height="2"></rect>
            <rect id="Rectangle" x="14" y="11" width="2" height="2"></rect>
        </g>
    </g>
</svg>