<?xml version="1.0" encoding="UTF-8"?>
<svg width="24px" height="24px" viewBox="0 0 24 24" version="1.1" xmlns="http://www.w3.org/2000/svg" xmlns:xlink="http://www.w3.org/1999/xlink">
    <!-- Generator: Sketch 52.6 (67491) - http://www.bohemiancoding.com/sketch -->
    <title>icv_print</title>
    <desc>Created with Sketch.</desc>
    <g id="icv_print" stroke="none" stroke-width="1" fill="none" fill-rule="evenodd">
        <rect id="Rectangle" x="0" y="0" width="24" height="24"></rect>
        <g id="Printer" transform="translate(2.000000, 2.000000)" fill="#E94D10">
            <path d="M20,7 C20,5.3 18.7,4 17,4 L16,4 L16,0 L4,0 L4,4 L3,4 C1.3,4 0,5.3 0,7 L0,16 L4,16 L4,20 L16,20 L16,16 L20,16 L20,7 Z M6,2 L14,2 L14,4 L6,4 L6,2 Z M14,18 L6,18 L6,14 L14,14 L14,18 Z M18,14 L16,14 L16,12 L4,12 L4,14 L2,14 L2,7 C2,6.4 2.4,6 3,6 L17,6 C17.6,6 18,6.4 18,7 L18,14 Z" id="Shape" fill-rule="nonzero"></path>
            <rect id="Rectangle" x="14" y="8" width="2" height="2"></rect>
        </g>
    </g>
</svg>