<?xml version="1.0" encoding="UTF-8"?>
<svg width="24px" height="24px" viewBox="0 0 24 24" version="1.1" xmlns="http://www.w3.org/2000/svg" xmlns:xlink="http://www.w3.org/1999/xlink">
    <!-- Generator: Sketch 52.6 (67491) - http://www.bohemiancoding.com/sketch -->
    <title>icv_sostoyaniy_scheta</title>
    <desc>Created with Sketch.</desc>
    <g id="icv_sostoyaniy_scheta" stroke="none" stroke-width="1" fill="none" fill-rule="evenodd">
        <g id="Sostoyanie_scheta" transform="translate(2.000000, 2.000000)" fill="#666666">
            <path d="M18,0 L2,0 C0.9,0 0,0.9 0,2 L0,18 C0,19.1 0.9,20 2,20 L18,20 C19.1,20 20,19.1 20,18 L20,2 C20,0.9 19.1,0 18,0 Z M18,2 L18,3 L2,3 L2,2 L18,2 Z M18,5 L18,15 L2,15 L2,5 L18,5 Z M2,18 L2,17 L18,17 L18,18 L2,18 Z" id="Shape"></path>
            <rect id="Rectangle" x="4" y="6" width="9" height="2"></rect>
            <rect id="Rectangle" x="14" y="6" width="2" height="2"></rect>
            <rect id="Rectangle" x="4" y="9" width="9" height="2"></rect>
            <rect id="Rectangle" x="14" y="9" width="2" height="2"></rect>
            <rect id="Rectangle" x="4" y="12" width="9" height="2"></rect>
            <rect id="Rectangle" x="14" y="12" width="2" height="2"></rect>
        </g>
    </g>
</svg>