<?xml version="1.0" encoding="UTF-8"?>
<svg width="24px" height="24px" viewBox="0 0 24 24" version="1.1" xmlns="http://www.w3.org/2000/svg" xmlns:xlink="http://www.w3.org/1999/xlink">
    <!-- Generator: Sketch 52.6 (67491) - http://www.bohemiancoding.com/sketch -->
    <title>icv_card_arested</title>
    <desc>Created with Sketch.</desc>
    <g id="icv_card_arested" stroke="none" stroke-width="1" fill="none" fill-rule="evenodd">
        <g id="Karta_arest" transform="translate(2.000000, 2.000000)" fill="#D7031D" fill-rule="nonzero">
            <path d="M18,0 L2,0 C0.9,0 0,0.9 0,2 L0,13 C0,14.1 0.9,15 2,15 L4.1,15 C4.6,17.8 7,20 10,20 C13,20 15.4,17.8 15.9,15 L18,15 C19.1,15 20,14.1 20,13 L20,2 C20,0.9 19.1,0 18,0 Z M18,2 L18,4 L2,4 L2,2 L18,2 Z M14.2,14 C14.2,14.8 14,15.5 13.6,16.2 L11.4,14 L13.6,11.8 C14,12.5 14.2,13.2 14.2,14 Z M10,12.6 L7.8,10.4 C8.4,10 9.2,9.8 10,9.8 C10.8,9.8 11.5,10 12.2,10.4 L10,12.6 Z M5.8,14 C5.8,13.2 6,12.5 6.4,11.8 L8.6,14 L6.4,16.2 C6,15.5 5.8,14.8 5.8,14 Z M7.8,17.6 L10,15.4 L12.2,17.6 C11.6,18 10.8,18.2 10,18.2 C9.2,18.2 8.5,18 7.8,17.6 Z M15.9,13 C15.4,10.2 13,8 10,8 C7,8 4.6,10.2 4.1,13 L2,13 L2,7 L18,7 L18,13 L15.9,13 Z" id="Shape"></path>
        </g>
        <rect id="Rectangle" x="0" y="0" width="24" height="24"></rect>
    </g>
</svg>