<?xml version="1.0" encoding="UTF-8"?>
<svg width="24px" height="24px" viewBox="0 0 24 24" version="1.1" xmlns="http://www.w3.org/2000/svg" xmlns:xlink="http://www.w3.org/1999/xlink">
    <!-- Generator: Sketch 52.6 (67491) - http://www.bohemiancoding.com/sketch -->
    <title>icv_card_active</title>
    <desc>Created with Sketch.</desc>
    <g id="icv_card_active" stroke="none" stroke-width="1" fill="none" fill-rule="evenodd">
        <rect id="Rectangle" x="0" y="0" width="24" height="24"></rect>
        <g id="Karta_1" transform="translate(2.000000, 2.000000)" fill="#009840">
            <path d="M18,0 L2,0 C0.9,0 0,0.9 0,2 L0,13 C0,14.1 0.9,15 2,15 L4.1,15 C4.6,17.8 7,20 10,20 C13,20 15.4,17.8 15.9,15 L18,15 C19.1,15 20,14.1 20,13 L20,2 C20,0.9 19.1,0 18,0 Z M18,2 L18,4 L2,4 L2,2 L18,2 Z M10,18.2 C7.7,18.2 5.8,16.3 5.8,14 C5.8,11.7 7.7,9.8 10,9.8 C12.3,9.8 14.2,11.7 14.2,14 C14.2,16.3 12.3,18.2 10,18.2 Z M15.9,13 C15.4,10.2 13,8 10,8 C7,8 4.6,10.2 4.1,13 L2,13 L2,7 L18,7 L18,13 L15.9,13 Z" id="Shape" fill-rule="nonzero"></path>
            <polygon id="Path" points="10 14.6 8.7 13.3 7.3 14.7 10 17.4 13.3 14.2 11.8 12.7"></polygon>
        </g>
    </g>
</svg>