<?xml version="1.0" encoding="UTF-8"?>
<svg viewBox="0 0 76 30" version="1.1" xmlns="http://www.w3.org/2000/svg" xmlns:xlink="http://www.w3.org/1999/xlink">
    <!-- Generator: Sketch 52.6 (67491) - http://www.bohemiancoding.com/sketch -->
    <title>nnk_logo_short</title>
    <desc>Created with Sketch.</desc>
    <defs>
        <radialGradient cx="49.6290231%" cy="50.0106273%" fx="49.6290231%" fy="50.0106273%" r="40.2075491%" gradientTransform="translate(0.496290,0.500106),scale(0.987457,1.000000),translate(-0.496290,-0.500106)" id="radialGradient-1">
            <stop stop-color="#FFED00" offset="0%"></stop>
            <stop stop-color="#FFE900" offset="52.75%"></stop>
            <stop stop-color="#FFE800" offset="52.81%"></stop>
            <stop stop-color="#FFD200" offset="56.64%"></stop>
            <stop stop-color="#FCC000" offset="60.53%"></stop>
            <stop stop-color="#F9B200" offset="64.52%"></stop>
            <stop stop-color="#F8A900" offset="68.64%"></stop>
            <stop stop-color="#F7A600" offset="73.08%"></stop>
            <stop stop-color="#E84E0F" offset="88.46%"></stop>
            <stop stop-color="#E84E0F" offset="98.9%"></stop>
        </radialGradient>
    </defs>
    <g id="Symbols" stroke="none" stroke-width="1" fill="none" fill-rule="evenodd">
        <g id="mobile_header" transform="translate(-20.000000, -26.000000)">
            <g id="nnk_logo_short">
                <g transform="translate(20.000000, 26.000000)">
                    <g id="nnk_abns_logo">
                        <g id="Group">
                            <path d="M39.712597,8.78775 L39.712597,13.59075 L44.3284478,13.59075 L44.3284478,8.78775 L47.5408507,8.78775 L47.5408507,21.057 L44.3284478,21.057 L44.3284478,15.939 L39.712597,15.939 L39.712597,21.057 L36.4821045,21.057 L36.4821045,8.78775 L39.712597,8.78775 Z M53.3988507,8.78775 L53.3988507,13.59075 L58.0124403,13.59075 L58.0124403,8.78775 L61.2259739,8.78775 L61.2259739,21.057 L58.0124403,21.057 L58.0124403,15.939 L53.3988507,15.939 L53.3988507,21.057 L50.1672276,21.057 L50.1672276,8.78775 L53.3988507,8.78775 Z M67.0636231,8.78775 L67.0832201,14.132625 L67.2426343,13.852875 L71.1477164,8.78775 L74.9830784,8.78775 L69.9051903,14.48475 L75.4801642,21.05775 L71.43225,21.05775 L67.1913806,15.34425 L67.0832201,15.117 L67.0832201,21.05775 L63.8538582,21.05775 L63.8538582,8.7885 L67.0832201,8.7885 L67.0832201,8.788125 L67.0636231,8.78775 Z M18.3330075,14.11275 C18.2139179,13.584375 17.8362985,12.8415 17.3848134,12.0855 L15.3161978,15.306 L13.2434366,12.0765 C12.7919515,12.833625 12.4094328,13.5825 12.291097,14.111625 C12.1976343,14.409 12.1471343,14.723625 12.1471343,15.051375 C12.1471343,16.7775 13.5633955,18.1785 15.3116754,18.1785 C17.060709,18.1785 18.4777239,16.7775 18.4777239,15.051375 C18.4777239,14.723625 18.4264701,14.409 18.3330075,14.11275 Z" id="Shape" fill="#000000" fill-rule="nonzero"></path>
                            <path d="M8.73499254,19.209375 L10.3140597,16.990125 L7.60891791,16.5255 L6.42480597,18.182625 L2.61883955,17.529375 L1.77635684e-15,21.208875 L4.48809328,21.9825 L6.71122388,18.861375 L8.73461567,19.208625 L8.73499254,19.209375 Z M16.7335896,7.513875 L17.2039179,10.188375 L19.4526754,8.6265 L19.1010597,6.627375 L22.259194,4.434375 L21.4787052,0.000375 L17.7503731,2.589 L18.4132799,6.34725 L16.7339664,7.51425 L16.7335896,7.513875 Z M13.6410299,22.480125 L13.1707015,19.80675 L10.9211903,21.369 L11.275444,23.368875 L8.11467164,25.561875 L8.89742164,29.992875 L12.6253769,27.406875 L11.9620933,23.648625 L13.6417836,22.480125 L13.6410299,22.480125 Z M21.6381194,10.784625 L20.0594291,13.004625 L22.764194,13.47075 L23.9471754,11.810625 L27.7535187,12.465 L30.3734888,8.7855 L25.8853955,8.01075 L23.6622649,11.132625 L21.6388731,10.783875 L21.6381194,10.784625 Z M10.9208134,8.6265 L13.1703246,10.188375 L13.640653,7.513125 L11.9605858,6.346875 L12.6238694,2.588625 L8.89591418,4.4408921e-15 L8.11316418,4.432125 L11.2739366,6.626625 L10.9204366,8.62575 L10.9208134,8.6265 Z M19.4530522,21.369 L17.2042948,19.807125 L16.7339664,22.4805 L18.4136567,23.649 L17.75075,27.406875 L21.4790821,29.993625 L22.2595709,25.5615 L19.1014366,23.369625 L19.4526754,21.369375 L19.4530522,21.369 Z M17.2073097,4.711125 L15.186556,1.5675 L13.166556,4.711125 L15.186556,7.8555 L17.2073097,4.711125 Z M20.3021306,9.947625 L23.9810933,9.133875 L24.806806,5.500875 L21.1248284,6.31425 L20.3017537,9.947625 L20.3021306,9.947625 Z M10.0721119,9.947625 L9.24828358,6.31425 L5.56894403,5.500875 L6.39088806,9.133875 L10.0721119,9.947625 Z M22.4227537,14.998125 L25.6053843,16.993125 L28.7902761,14.998125 L25.6053843,13.004625 L22.4227537,14.998125 Z M13.166556,25.286625 L15.186556,28.429875 L17.2073097,25.286625 L15.186556,22.143375 L13.166556,25.286625 Z M20.3021306,20.04975 L21.1252052,23.683125 L24.8071828,24.494625 L23.9814701,20.863125 L20.3025075,20.04975 L20.3021306,20.04975 Z M1.58472015,14.998125 L4.76885821,16.993125 L7.95375,14.998125 L4.76885821,13.004625 L1.58472015,14.998125 Z M10.0721119,20.04975 L6.39088806,20.863125 L5.56894403,24.494625 L9.24828358,23.68425 L10.0721119,20.04975 Z M27.7531418,17.530125 L23.9467985,18.183375 L22.7638172,16.52625 L20.0590522,16.990875 L21.6377425,19.210125 L23.6611343,18.862125 L25.8842649,21.98325 L30.3746194,21.209625 L27.7527649,17.530875 L27.7531418,17.530125 Z M6.42744403,11.81175 L7.60929478,13.471875 L10.3144366,13.006875 L8.7353694,10.78575 L6.71197761,11.134875 L4.48884701,8.013 L0.000753731343,8.78775 L2.62260821,12.46725 L6.42819776,11.812125 L6.42744403,11.81175 Z" id="Shape" fill="url(#radialGradient-1)" fill-rule="nonzero"></path>
                            <polygon id="Path" fill="#E94E1B" points="16.9321978 11.336625 15.3165746 13.851375 13.7028358 11.336625 15.3165746 8.824875"></polygon>
                        </g>
                    </g>
                </g>
            </g>
        </g>
    </g>
</svg>
