<?xml version="1.0" encoding="UTF-8"?>
<svg width="24px" height="24px" viewBox="0 0 24 24" version="1.1" xmlns="http://www.w3.org/2000/svg" xmlns:xlink="http://www.w3.org/1999/xlink">
    <!-- Generator: Sketch 52.6 (67491) - http://www.bohemiancoding.com/sketch -->
    <title>icv_stoimost</title>
    <desc>Created with Sketch.</desc>
    <g id="icv_stoimost" stroke="none" stroke-width="1" fill="none" fill-rule="evenodd">
        <g id="Stoimost" transform="translate(3.000000, 2.000000)" fill="#666666">
            <path d="M9,0 L0,5 L0,20 L18,20 L18,5 L9,0 Z M16,18 L2,18 L2,6.2 L9,2.3 L16,6.2 L16,18 Z" id="Shape"></path>
            <path d="M8,5 L8,6.1 C7.3,6.2 6.8,6.5 6.3,6.9 C5.6,7.5 5.3,8.2 5.3,9 C5.3,9.8 5.6,10.4 6.2,10.8 C6.8,11.2 7.7,11.6 8.8,11.8 C9.6,12 10.1,12.2 10.4,12.4 C10.7,12.6 10.8,12.9 10.8,13.2 C10.8,13.6 10.6,13.9 10.3,14.1 C10,14.3 9.6,14.4 9,14.4 C8.4,14.4 8,14.3 7.6,14 C7.3,13.8 7,13.4 6.9,13 L5,13 C5,13.7 5.4,14.5 6,15 C6.5,15.5 7.2,15.7 8,15.9 L8,17 L10,17 L10,15.9 C10.8,15.8 11.4,15.5 11.9,15.2 C12.6,14.7 13,14 13,13.1 C13,12.3 12.7,11.7 12.1,11.2 C11.5,10.7 10.6,10.4 9.4,10.1 C8.6,9.9 8.1,9.8 7.8,9.6 C7.5,9.4 7.4,9.1 7.4,8.8 C7.4,8.5 7.5,8.2 7.8,8 C8.1,7.8 8.5,7.6 9,7.6 C9.5,7.6 10,7.7 10.3,8 C10.6,8.3 10.8,8.5 10.8,8.9 L12.9,8.9 C12.9,8 12.6,7.4 11.9,6.8 C11.4,6.4 10.8,6.1 10,6 L10,5 L8,5 Z" id="Path"></path>
        </g>
    </g>
</svg>