<?xml version="1.0" encoding="UTF-8"?>
<svg width="382px" height="40px" viewBox="0 0 382 40" version="1.1" xmlns="http://www.w3.org/2000/svg" xmlns:xlink="http://www.w3.org/1999/xlink">
    <!-- Generator: Sketch 52.6 (67491) - http://www.bohemiancoding.com/sketch -->
    <title>nnk_pnp_logo</title>
    <desc>Created with Sketch.</desc>
    <defs>
        <radialGradient cx="49.6290231%" cy="50.0106273%" fx="49.6290231%" fy="50.0106273%" r="40.2075491%" gradientTransform="translate(0.496290,0.500106),scale(0.987457,1.000000),translate(-0.496290,-0.500106)" id="radialGradient-1">
            <stop stop-color="#FFED00" offset="0%"></stop>
            <stop stop-color="#FFE900" offset="52.75%"></stop>
            <stop stop-color="#FFE800" offset="52.81%"></stop>
            <stop stop-color="#FFD200" offset="56.64%"></stop>
            <stop stop-color="#FCC000" offset="60.53%"></stop>
            <stop stop-color="#F9B200" offset="64.52%"></stop>
            <stop stop-color="#F8A900" offset="68.64%"></stop>
            <stop stop-color="#F7A600" offset="73.08%"></stop>
            <stop stop-color="#E84E0F" offset="88.46%"></stop>
            <stop stop-color="#E84E0F" offset="98.9%"></stop>
        </radialGradient>
    </defs>
    <g id="Symbols" stroke="none" stroke-width="1" fill="none" fill-rule="evenodd">
        <g id="header_manager" transform="translate(-131.000000, -20.000000)">
            <g id="nnk_pnp_logo" transform="translate(131.000000, 20.000000)">
                <text id="АО-«ННК-Приморнефтеп" font-family="Roboto-Medium, Roboto" font-size="16" font-weight="400" fill="#4A4A4A">
                    <tspan x="137" y="27">АО «ННК-Приморнефтепродукт»</tspan>
                </text>
                <rect id="Rectangle" fill="#D8D8D8" fill-rule="evenodd" x="123" y="0" width="1" height="40"></rect>
                <rect id="Rectangle" fill="#D8D8D8" fill-rule="evenodd" x="119" y="0" width="1" height="40"></rect>
                <g id="nnk_abns_logo" stroke-width="1" fill-rule="evenodd">
                    <g id="Group">
                        <path d="M52.9501294,11.717 L52.9501294,18.121 L59.104597,18.121 L59.104597,11.717 L63.387801,11.717 L63.387801,28.076 L59.104597,28.076 L59.104597,21.252 L52.9501294,21.252 L52.9501294,28.076 L48.642806,28.076 L48.642806,11.717 L52.9501294,11.717 Z M71.1984677,11.717 L71.1984677,18.121 L77.3499204,18.121 L77.3499204,11.717 L81.6346318,11.717 L81.6346318,28.076 L77.3499204,28.076 L77.3499204,21.252 L71.1984677,21.252 L71.1984677,28.076 L66.8896368,28.076 L66.8896368,11.717 L71.1984677,11.717 Z M89.4181642,11.717 L89.4442935,18.8435 L89.6568458,18.4705 L94.8636219,11.717 L99.9774378,11.717 L93.2069204,19.313 L100.640219,28.077 L95.243,28.077 L89.5885075,20.459 L89.4442935,20.156 L89.4442935,28.077 L85.1384776,28.077 L85.1384776,11.718 L89.4442935,11.718 L89.4442935,11.7175 L89.4181642,11.717 Z M24.44401,18.817 C24.2852239,18.1125 23.7817313,17.122 23.1797512,16.114 L20.421597,20.408 L17.6579154,16.102 C17.0559353,17.1115 16.5459104,18.11 16.3881294,18.8155 C16.2635124,19.212 16.1961791,19.6315 16.1961791,20.0685 C16.1961791,22.37 18.0845274,24.238 20.4155672,24.238 C22.7476119,24.238 24.6369652,22.37 24.6369652,20.0685 C24.6369652,19.6315 24.5686269,19.212 24.44401,18.817 Z" id="Shape" fill="#000000" fill-rule="nonzero"></path>
                        <path d="M11.6466567,25.6125 L13.7520796,22.6535 L10.1452239,22.034 L8.56640796,24.2435 L3.49178607,23.3725 L1.77635684e-15,28.2785 L5.98412438,29.31 L8.94829851,25.1485 L11.6461542,25.6115 L11.6466567,25.6125 Z M22.3114527,10.0185 L22.9385572,13.5845 L25.9369005,11.502 L25.4680796,8.8365 L29.6789254,5.9125 L28.6382736,0.0005 L23.6671642,3.452 L24.5510398,8.463 L22.3119552,10.019 L22.3114527,10.0185 Z M18.1880398,29.9735 L17.5609353,26.409 L14.5615871,28.492 L15.0339254,31.1585 L10.8195622,34.0825 L11.8632289,39.9905 L16.8338358,36.5425 L15.9494577,31.5315 L18.1890448,29.9735 L18.1880398,29.9735 Z M28.8508259,14.3795 L26.7459055,17.3395 L30.3522587,17.961 L31.9295672,15.7475 L37.0046915,16.62 L40.4979851,11.714 L34.5138607,10.681 L31.5496866,14.8435 L28.8518308,14.3785 L28.8508259,14.3795 Z M14.5610846,11.502 L17.5604328,13.5845 L18.1875373,10.0175 L15.9474478,8.4625 L16.8318259,3.4515 L11.8612189,4.4408921e-15 L10.8175522,5.9095 L15.0319154,8.8355 L14.5605821,11.501 L14.5610846,11.502 Z M25.937403,28.492 L22.9390597,26.4095 L22.3119552,29.974 L24.5515423,31.532 L23.6676667,36.5425 L28.6387761,39.9915 L29.6794279,34.082 L25.4685821,31.1595 L25.9369005,28.4925 L25.937403,28.492 Z M22.9430796,6.2815 L20.2487413,2.09 L17.555408,6.2815 L20.2487413,10.474 L22.9430796,6.2815 Z M27.0695075,13.2635 L31.974791,12.1785 L33.0757413,7.3345 L28.1664378,8.419 L27.069005,13.2635 L27.0695075,13.2635 Z M13.4294826,13.2635 L12.3310448,8.419 L7.42525871,7.3345 L8.52118408,12.1785 L13.4294826,13.2635 Z M29.897005,19.9975 L34.1405124,22.6575 L38.3870348,19.9975 L34.1405124,17.3395 L29.897005,19.9975 Z M17.555408,33.7155 L20.2487413,37.9065 L22.9430796,33.7155 L20.2487413,29.5245 L17.555408,33.7155 Z M27.0695075,26.733 L28.1669403,31.5775 L33.0762438,32.6595 L31.9752935,27.8175 L27.07001,26.733 L27.0695075,26.733 Z M2.1129602,19.9975 L6.35847761,22.6575 L10.605,19.9975 L6.35847761,17.3395 L2.1129602,19.9975 Z M13.4294826,26.733 L8.52118408,27.8175 L7.42525871,32.6595 L12.3310448,31.579 L13.4294826,26.733 Z M37.0041891,23.3735 L31.9290647,24.2445 L30.3517562,22.035 L26.745403,22.6545 L28.8503234,25.6135 L31.5481791,25.1495 L34.5123532,29.311 L40.4994925,28.2795 L37.0036866,23.3745 L37.0041891,23.3735 Z M8.56992537,15.749 L10.1457264,17.9625 L13.7525821,17.3425 L11.6471592,14.381 L8.94930348,14.8465 L5.98512935,10.684 L0.00100497512,11.717 L3.49681095,16.623 L8.57093035,15.7495 L8.56992537,15.749 Z" id="Shape" fill="url(#radialGradient-1)" fill-rule="nonzero"></path>
                        <polygon id="Path" fill="#E94E1B" points="22.5762637 15.1155 20.4220995 18.4685 18.2704478 15.1155 20.4220995 11.7665"></polygon>
                    </g>
                </g>
            </g>
        </g>
    </g>
</svg>