<?xml version="1.0" encoding="UTF-8"?>
<svg width="24px" height="24px" viewBox="0 0 24 24" version="1.1" xmlns="http://www.w3.org/2000/svg" xmlns:xlink="http://www.w3.org/1999/xlink">
    <!-- Generator: Sketch 52.6 (67491) - http://www.bohemiancoding.com/sketch -->
    <title>ic_ge</title>
    <desc>Created with Sketch.</desc>
    <g id="ic_ge" stroke="none" stroke-width="1" fill="none" fill-rule="evenodd">
        <g id="icv_card_active-copy-3">
            <rect id="Rectangle" x="0" y="0" width="24" height="24"></rect>
            <g id="baseline-credit_card-24px">
                <polygon id="Path" points="0 0 24 0 24 24 0 24"></polygon>
            </g>
        </g>
        <polygon id="GE" fill="#00963F" points="13 13.3056641 14.9423828 4 21.8422852 4 21.5185547 5.55517578 16.5356445 5.55517578 16.0913086 7.66894531 20.9091797 7.66894531 20.5854492 9.22412109 15.7675781 9.22412109 15.1835938 11.7504883 20.5981445 11.7504883 20.2680664 13.3056641"></polygon>
        <path d="M8.56396484,8.49414062 L12.7280273,8.49414062 L11.8901367,12.4868164 C11.3992488,12.8042008 10.7972855,13.0729156 10.0842285,13.2929688 C9.37117156,13.5130219 8.64437219,13.6230469 7.90380859,13.6230469 C6.75276117,13.6230469 5.87044578,13.3627956 5.25683594,12.8422852 C4.41894112,12.1313441 4,11.1009182 4,9.75097656 C4,8.84537308 4.17984846,7.97786873 4.53955078,7.1484375 C4.97119356,6.14973459 5.5847942,5.37532827 6.38037109,4.82519531 C7.17594799,4.27506235 8.11115999,4 9.18603516,4 C10.2609103,4 11.123125,4.24967198 11.7727051,4.74902344 C12.4222851,5.24837489 12.8528635,5.9762322 13.0644531,6.93261719 L11.2807617,7.13574219 C11.1241854,6.61099998 10.8713396,6.21533336 10.5222168,5.94873047 C10.173094,5.68212757 9.73405212,5.54882812 9.20507812,5.54882812 C8.58723649,5.54882812 8.02018487,5.70963381 7.50390625,6.03125 C6.98762763,6.35286619 6.58349755,6.85009429 6.29150391,7.52294922 C5.99951026,8.19580415 5.85351562,8.93000904 5.85351562,9.72558594 C5.85351562,10.5084675 6.03124822,11.0871563 6.38671875,11.4616699 C6.74218928,11.8361835 7.26269188,12.0234375 7.94824219,12.0234375 C8.35872601,12.0234375 8.779783,11.9652512 9.21142578,11.848877 C9.64306856,11.7325027 10.0154607,11.5939136 10.3286133,11.4331055 L10.6142578,10.0493164 L8.24023438,10.0493164 L8.56396484,8.49414062 Z" id="Path" fill="#000000"></path>
        <polygon id="Rectangle" fill="#EB8A1A" points="3 15 23 15 22 19 2 19"></polygon>
    </g>
</svg>