<?xml version="1.0" encoding="UTF-8"?>
<svg width="24px" height="24px" viewBox="0 0 24 24" version="1.1" xmlns="http://www.w3.org/2000/svg" xmlns:xlink="http://www.w3.org/1999/xlink">
    <!-- Generator: Sketch 52.6 (67491) - http://www.bohemiancoding.com/sketch -->
    <title>icv_vipiska_po_karte</title>
    <desc>Created with Sketch.</desc>
    <g id="icv_vipiska_po_karte" stroke="none" stroke-width="1" fill="none" fill-rule="evenodd">
        <rect id="Rectangle" x="0" y="0" width="24" height="24"></rect>
        <g id="Vipiski_po_kartam" transform="translate(2.000000, 2.000000)" fill="#666666">
            <rect id="Rectangle" x="4" y="4" width="8" height="2"></rect>
            <rect id="Rectangle" x="4" y="7" width="8" height="2"></rect>
            <path d="M18,10 L16,10 L16,0 L0,0 L0,18 L4,18 C4,19.1 4.9,20 6,20 L18,20 C19.1,20 20,19.1 20,18 L20,12 C20,10.9 19.1,10 18,10 Z M18,13 L6,13 L6,12 L18,12 L18,13 Z M4,12 L4,16 L2,16 L2,2 L14,2 L14,10 L6,10 C4.9,10 4,10.9 4,12 Z M6,18 L6,16 L18,16 L18,18 L6,18 Z" id="Shape"></path>
        </g>
    </g>
</svg>