<?xml version="1.0" encoding="UTF-8"?>
<svg width="18px" height="12px" viewBox="0 0 18 12" version="1.1" xmlns="http://www.w3.org/2000/svg" xmlns:xlink="http://www.w3.org/1999/xlink">
    <!-- Generator: Sketch 52.6 (67491) - http://www.bohemiancoding.com/sketch -->
    <title>icon_last_update</title>
    <desc>Created with Sketch.</desc>
    <g id="Symbols" stroke="none" stroke-width="1" fill="none" fill-rule="evenodd">
        <g id="data_actualyti" transform="translate(-142.000000, -8.000000)">
            <g id="icon_last_update" transform="translate(142.000000, 5.000000)">
                <path d="M14.25,6 L11.25,9 L13.5,9 C13.5,11.4825 11.4825,13.5 9,13.5 C8.2425,13.5 7.5225,13.3125 6.9,12.975 L5.805,14.07 C6.7275,14.655 7.8225,15 9,15 C12.315,15 15,12.315 15,9 L17.25,9 L14.25,6 Z M4.5,9 C4.5,6.5175 6.5175,4.5 9,4.5 C9.7575,4.5 10.4775,4.6875 11.1,5.025 L12.195,3.93 C11.2725,3.345 10.1775,3 9,3 C5.685,3 3,5.685 3,9 L0.75,9 L3.75,12 L6.75,9 L4.5,9 Z" id="Shape" fill="#9B9B9B" fill-rule="nonzero"></path>
                <polygon id="Path" points="0 0 18 0 18 18 0 18"></polygon>
            </g>
        </g>
    </g>
</svg>