<?xml version="1.0" encoding="UTF-8"?>
<svg width="24px" height="12px" viewBox="0 0 24 12" version="1.1" xmlns="http://www.w3.org/2000/svg" xmlns:xlink="http://www.w3.org/1999/xlink">
    <!-- Generator: Sketch 52.6 (67491) - http://www.bohemiancoding.com/sketch -->
    <title>websee_logo</title>
    <desc>Created with Sketch.</desc>
    <g id="Symbols" stroke="none" stroke-width="1" fill="none" fill-rule="evenodd">
        <g id="footer" transform="translate(-1120.000000, -52.000000)" fill="#D8D8D8">
            <g id="websee_logo" transform="translate(1120.000000, 52.000000)">
                <path d="M4.8976578,10.5710204 C4.89846857,10.5681633 4.89887394,10.5657143 4.90009006,10.5628571 L6.49037349,5.25510203 L5.31478797,1.33102041 C5.1250728,0.697142857 4.64105589,0.184081633 4.23365469,0.184081633 L3.25183811,0.184081633 L1.57196697,0.184081633 L0.589339643,0.184081633 C0.182343837,0.184081633 0.00641138603,0.697142857 0.195721189,1.33102041 L2.95510411,10.5416327 C3.1399548,11.1579592 3.60248689,11.6595918 4.00218597,11.6861225 C3.9985376,11.684898 3.9952946,11.6844898 3.99164623,11.6828571 C4.35324011,11.5677551 4.73348123,11.1142857 4.8976578,10.5710204 L4.8976578,10.5710204 L4.8976578,10.5710204 Z" id="Shape"></path>
                <path d="M13.9865552,0.235102041 C13.9395318,0.215918367 13.8884546,0.205306123 13.8321076,0.205306123 L12.9719033,0.205306123 L12.6848983,0.205306123 L11.8255048,0.205306123 L10.023616,0.205306123 L9.16341169,0.205306123 C8.75601049,0.205306123 8.27199357,0.719591837 8.0822784,1.35265306 L5.32330083,10.5632653 C5.32249009,10.5661225 5.32208471,10.5685714 5.3208686,10.5714286 C5.156692,11.1146939 4.77645089,11.5677551 4.414857,11.6836735 C4.46188043,11.702449 4.51336297,11.7130612 4.57011537,11.7130612 L8.95707614,11.7110204 L8.94491491,11.7130612 C8.9530224,11.7130612 8.96031914,11.7110204 8.96923737,11.7110204 L9.23840591,11.7106123 C9.64621249,11.7106123 10.1294187,11.1971429 10.3191338,10.5632653 L13.0781114,1.35265306 C13.242288,0.806122449 13.6233398,0.351020408 13.9865552,0.235102041 L13.9865552,0.235102041 L13.9865552,0.235102041 Z" id="Shape"></path>
                <path d="M22.7191286,0.210612245 L21.7360959,0.210612245 L20.0570355,0.210612245 L19.0740028,0.210612245 C18.667007,0.210612245 18.1829901,0.72489796 17.9932749,1.35836735 L15.233892,10.5685714 C15.2326759,10.5718367 15.2318651,10.5755102 15.2310543,10.5787755 C15.0664724,11.1208163 14.6862313,11.5738775 14.3258535,11.6889796 C14.3728769,11.7077551 14.4235487,11.7183673 14.4807065,11.7183673 L15.4637392,11.7183673 L15.6271051,11.7183673 L16.6097324,11.7183673 C16.6000034,11.7183673 16.589869,11.7167347 16.5801401,11.7159184 L16.6097324,11.7159184 L18.2896035,11.7159184 L19.2718255,11.7159184 C19.6788213,11.7159184 20.1628382,11.202449 20.3525534,10.5681633 L23.1119363,1.35795918 C23.3016515,0.72489796 23.125719,0.210612245 22.7191286,0.210612245 L22.7191286,0.210612245 L22.7191286,0.210612245 Z" id="Shape"></path>
                <path d="M14.7754136,10.5685714 L16.3932625,5.1665306 L15.2513231,1.35510204 C15.0932271,0.826122449 14.7296063,0.381632653 14.3769307,0.249387755 C14.024255,0.381632653 13.6606343,0.822857143 13.5025383,1.3522449 L11.8173973,6.97673469 L12.8920446,10.5653061 C13.0764899,11.1808163 13.3975463,11.6820408 13.7972454,11.7097959 C13.7717068,11.704898 13.8900761,11.6979592 13.8669698,11.6889796 C14.2285637,11.5738775 14.607994,11.1208163 14.7721706,10.5787755 C14.7729814,10.5755102 14.7737921,10.5718367 14.7754136,10.5685714 L14.7754136,10.5685714 L14.7754136,10.5685714 Z" id="Shape"></path>
            </g>
        </g>
    </g>
</svg>